<svg xmlns="http://www.w3.org/2000/svg" viewBox="0 0 145 182" width="145" height="182"><rect width="100%" height="100%" fill="#0b1220"/><path d="M20.6 134.6 L21.1 136.6 L22.1 139.2 L23.1 141.3 L24.2 142.8 L26.2 144.9 L28.3 145.9 L29.3 147.4 L30.9 149.0 L32.9 150.0 L35.0 151.0 L37.1 151.6 L39.1 152.1 L40.7 153.1 L42.7 153.6 L44.8 154.1 L46.8 155.2 L48.9 155.7 L51.0 155.7 L53.0 156.2 L55.1 157.2 L57.1 158.3 L59.2 159.3 L61.3 159.8 L63.3 160.3 L65.4 161.3 L67.5 161.9 L69.5 162.4 L71.6 163.4 L73.6 163.9 L75.7 164.4 L77.8 165.5 L79.8 166.0 L81.9 166.5 L83.9 166.5 L86.0 166.0 L88.1 165.5 L89.1 163.9 L90.6 162.4 L92.7 161.9 L94.2 160.3 L96.3 159.3 L97.3 157.7 L98.4 156.2 L100.4 155.2 L101.5 153.6 L103.0 152.1 L104.6 150.0 L106.6 147.4 L107.6 145.9 L109.2 143.8 L109.7 141.8 L111.2 140.7 L111.8 138.7 L113.3 136.6 L114.9 134.6 L115.4 132.5 L115.9 130.4 L116.9 128.9 L117.4 126.8 L117.9 124.8 L119.0 122.7 L119.0 120.6 L119.0 118.6 L119.0 116.5 L119.0 114.5 L119.5 112.4 L119.5 110.3 L119.5 108.3 L120.0 105.7 L120.0 103.6 L120.0 101.6 L121.0 100.0 L121.0 98.0 L121.0 95.9 L121.6 89.7 L122.1 87.7 L123.1 86.1 L123.1 84.1 L123.6 82.0 L123.6 79.9 L124.1 77.9 L125.2 75.8 L125.2 73.8 L125.7 71.7 L125.7 69.6 L126.2 67.1 L127.7 65.0 L128.3 62.9 L128.3 60.9 L129.3 59.3 L129.3 56.8 L129.3 54.7 L129.3 52.6 L129.3 50.6 L129.3 48.5 L129.3 46.4 L129.3 44.4 L129.3 42.3 L128.3 40.8 L127.2 38.7 L125.7 37.7 L124.1 36.1 L123.1 34.6 L121.6 33.6 L120.0 32.5 L117.9 31.5 L116.9 30.0 L114.9 30.0 L112.8 29.4 L111.2 27.9 L109.2 27.9 L107.1 27.4 L105.1 27.4 L103.5 26.4 L101.5 26.4 L99.4 25.8 L97.3 25.3 L95.3 25.3 L92.2 24.3 L90.1 23.8 L88.1 23.3 L86.5 22.2 L84.5 22.2 L82.4 21.7 L80.3 21.7 L78.3 21.2 L76.7 20.2 L74.7 20.2 L72.6 19.7 L70.5 19.1 L68.5 19.1 L66.4 19.1 L64.4 19.1 L62.3 18.1 L60.2 18.1 L58.2 17.6 L55.6 17.1 L53.5 17.1 L51.5 17.1 L49.4 17.1 L47.9 16.0 L45.8 16.0 L43.7 16.0 L42.7 17.6 L40.7 18.1 L39.1 19.1 L37.1 20.2 L35.5 21.2 L33.4 22.2 L31.4 23.3 L29.3 25.3 L27.3 26.4 L25.2 27.4 L24.7 29.4 L22.6 30.0 L22.1 32.0 L21.1 33.6 L20.0 35.6 L18.5 37.7 L18.0 39.7 L17.0 41.8 L16.4 44.4 L16.4 46.4 L15.9 48.5 L15.9 50.6 L15.9 52.6 L15.9 54.7 L15.9 56.8 L15.9 58.8 L16.4 61.4 L18.0 63.4 L18.0 65.5 L18.0 67.6 L18.0 69.6 L18.0 71.7 L18.0 73.8 L18.0 75.8 L18.0 77.9 L18.0 79.9 L18.0 82.0 L18.0 84.1 L18.0 86.1 L18.0 88.2 L17.0 92.3 L17.0 94.4 L17.0 96.4 L17.0 98.5 L17.0 101.6 L17.0 103.6 L17.0 105.7 L17.0 107.8 L17.0 109.8 L17.0 111.9 L18.0 113.9 L18.5 116.0 L19.0 118.1 L20.6 119.1 L21.1 121.2 L21.1 124.8 L22.1 126.3 L22.1 128.4 L22.1 130.4 L22.1 132.5" fill="none" stroke="#f59e0b" stroke-width="3" stroke-linecap="round" stroke-linejoin="round" opacity="0.9"/><path d="M51.0 46.4 L52.0 48.0 L53.5 49.0 L55.1 51.1 L55.6 53.1 L57.1 54.7 L57.7 56.8 L59.2 58.3 L60.2 60.4 L61.3 62.9 L62.3 65.0 L63.8 66.5 L63.8 68.6 L65.4 70.7 L65.9 73.2 L67.5 75.3 L68.0 77.4 L68.5 79.4 L69.5 81.0 L70.0 83.0 L70.5 85.1 L71.6 87.2 L72.6 89.2 L74.1 92.3 L75.7 94.4 L76.2 97.5 L76.7 99.5 L77.8 101.6 L78.3 103.6 L78.8 105.7 L78.8 107.8 L79.8 110.9 L80.3 113.9 L80.3 116.0 L80.3 118.1 L80.3 120.1 L80.3 122.2 L80.3 124.3 L80.8 126.3 L80.8 128.4 L80.8 130.4 L80.8 132.5 L80.8 134.6 L80.8 136.6 L80.8 138.7 L80.8 140.7 L79.8 139.2 L78.8 137.6 L76.7 136.6" fill="none" stroke="#f59e0b" stroke-width="3" stroke-linecap="round" stroke-linejoin="round" opacity="0.9"/><path d="M67.5 121.2 L68.0 123.2 L69.5 124.3 L70.0 126.3 L71.6 128.4 L73.6 130.4 L74.7 132.5 L76.2 133.5 L77.8 134.6 L78.8 136.6 L80.3 137.6 L82.4 137.6 L83.9 138.7 L86.0 138.7 L87.0 140.7 L88.1 139.2 L90.6 135.1 L92.2 133.5 L92.7 131.5 L93.2 129.4 L94.2 127.3 L94.8 125.3 L96.3 123.2 L96.3 121.2 L97.3 119.1 L98.4 117.0 L98.9 115.0 L100.4 113.9 L100.9 111.9" fill="none" stroke="#f59e0b" stroke-width="3" stroke-linecap="round" stroke-linejoin="round" opacity="0.9"/></svg>