<svg xmlns="http://www.w3.org/2000/svg" viewBox="0 0 378 239" width="378" height="239"><rect width="100%" height="100%" fill="#0b1220"/><path d="M16.1 44.5 L16.1 50.8 L16.1 56.1 L16.1 61.4 L16.1 67.7 L16.1 73.0 L16.1 77.2 L16.1 81.4 L16.1 86.7 L16.1 91.9 L18.2 95.1 L18.2 99.3 L18.2 104.6 L18.2 114.1 L18.2 119.3 L18.2 125.7 L21.3 130.9 L21.3 137.3 L24.5 143.6 L30.8 147.8 L34.0 151.0 L37.1 157.3 L40.3 160.5 L43.5 163.6 L47.7 168.9 L50.9 172.1 L58.2 175.2 L63.5 178.4 L66.7 181.5 L71.9 181.5 L77.2 185.8 L80.4 188.9 L85.6 193.1 L92.0 196.3 L95.1 199.5 L101.5 199.5 L104.6 202.6 L107.8 205.8 L118.3 210.0 L124.7 210.0 L129.9 213.2 L137.3 216.3 L142.6 219.5 L148.9 219.5 L165.8 222.7 L172.1 222.7 L181.6 222.7 L191.1 222.7 L198.5 222.7 L209.0 219.5 L214.3 219.5 L220.6 217.4 L224.8 217.4 L229.0 214.2 L234.3 214.2 L240.6 211.1 L244.8 211.1 L251.2 207.9 L253.3 204.7 L259.6 201.6 L264.9 198.4 L269.1 195.3 L272.3 192.1 L275.4 188.9 L278.6 185.8 L281.7 182.6 L288.1 179.4 L290.2 176.3 L297.6 176.3 L302.8 171.0 L306.0 167.8 L309.2 164.7 L311.3 161.5 L314.4 158.4 L317.6 156.2 L320.8 153.1 L323.9 149.9 L330.2 146.8 L333.4 143.6 L339.7 141.5 L342.9 138.3 L348.2 138.3 L351.3 136.2 L353.4 130.9 L356.6 127.8 L359.8 124.6 L359.8 119.3 L359.8 113.0 L359.8 107.7 L356.6 102.5 L356.6 96.1 L353.4 94.0 L353.4 87.7 L347.1 84.5 L347.1 79.3" fill="none" stroke="#f59e0b" stroke-width="3" stroke-linecap="round" stroke-linejoin="round" opacity="0.9"/><path d="M322.9 48.7 L319.7 45.5 L316.5 42.4 L313.4 39.2 L308.1 36.1 L304.9 32.9 L301.8 30.8 L295.4 30.8 L290.2 30.8 L287.0 27.6 L277.5 27.6 L274.4 24.5 L269.1 24.5 L262.8 22.3 L256.4 22.3 L253.3 19.2 L245.9 19.2 L241.7 19.2 L239.6 16.0 L232.2 16.0 L228.0 16.0 L222.7 16.0 L215.3 16.0 L210.1 16.0 L205.8 16.0 L200.6 16.0 L194.2 16.0 L189.0 16.0 L183.7 16.0 L179.5 16.0 L175.3 18.1 L170.0 18.1 L163.7 18.1 L158.4 18.1 L154.2 20.2 L147.8 20.2 L143.6 20.2 L138.4 23.4 L132.0 26.6 L126.8 26.6 L120.4 29.7 L115.2 29.7 L112.0 32.9 L105.7 32.9 L102.5 36.1 L96.2 36.1 L90.9 36.1 L85.6 36.1 L82.5 38.2 L77.2 38.2 L71.9 38.2 L65.6 38.2 L60.3 38.2 L54.0 38.2 L47.7 38.2 L44.5 36.1 L39.3 36.1 L32.9 33.9 L26.6 30.8 L21.3 30.8" fill="none" stroke="#f59e0b" stroke-width="3" stroke-linecap="round" stroke-linejoin="round" opacity="0.9"/><path d="M332.4 55.0 L335.5 44.5 L341.8 48.7 L345.0 55.0 L346.1 60.3 L349.2 64.5 L351.3 67.7 L354.5 70.8 L357.7 74.0 L359.8 77.2 L361.9 82.4 L361.9 87.7 L359.8 94.0" fill="none" stroke="#f59e0b" stroke-width="3" stroke-linecap="round" stroke-linejoin="round" opacity="0.9"/></svg>