<svg xmlns="http://www.w3.org/2000/svg" viewBox="0 0 778 361" width="778" height="361"><rect width="100%" height="100%" fill="#0b1220"/><path d="M102.3 59.1 L100.9 61.0 L99.5 63.3 L97.7 67.0 L95.8 71.2 L93.9 75.9 L91.6 81.0 L89.3 86.2 L86.9 91.3 L84.1 96.4 L81.8 101.1 L79.5 105.8 L77.6 110.0 L75.7 113.7 L73.9 117.4 L72.0 121.2 L70.1 124.9 L68.3 128.6 L65.5 136.6 L64.1 139.8 L62.7 143.6 L60.8 147.3 L58.9 151.5 L56.6 155.7 L54.7 159.9 L52.9 163.6 L50.5 167.8 L48.7 171.5 L44.5 180.4 L42.6 184.6 L41.2 189.3 L39.4 193.5 L38.0 198.1 L36.1 202.3 L34.7 206.1 L33.3 209.8 L31.9 213.5 L30.5 217.7 L28.6 222.4 L26.8 227.1 L24.9 231.3 L23.5 235.0 L22.1 238.3 L20.7 242.9 L19.3 246.6 L18.4 250.4 L17.4 253.6 L17.0 256.0 L16.5 259.2 L16.0 262.0 L15.6 264.4 L15.6 267.6 L15.6 270.9 L15.6 273.7 L15.6 276.5 L16.0 278.8 L16.5 281.6 L17.4 284.0 L18.4 287.2 L19.8 290.5 L21.6 293.8 L23.5 297.5 L25.8 299.8 L28.6 302.6 L31.0 305.0 L33.3 307.3 L36.1 310.1 L39.4 312.9 L42.6 315.7 L46.3 318.5 L50.1 320.8 L53.8 323.2 L57.1 325.5 L60.8 327.4 L64.5 329.2 L68.7 331.1 L73.4 333.0 L77.6 334.4 L82.3 335.8 L86.9 336.7 L92.1 337.6 L97.2 338.1 L101.9 339.0 L107.0 339.9 L111.7 340.9 L116.8 341.8 L121.9 342.3 L127.1 342.7 L132.2 343.2 L137.3 343.7 L143.4 344.1 L149.0 344.1 L154.6 344.6 L161.1 345.1 L167.2 345.1 L174.2 345.1 L181.2 345.1 L187.7 344.6 L194.2 344.6 L201.2 344.1 L207.8 344.1 L214.3 343.7 L220.8 343.7 L227.8 343.2 L234.8 342.7 L241.3 342.3 L248.8 341.3 L255.8 340.4 L262.3 339.9 L268.4 339.5 L274.9 339.0 L281.5 339.0 L287.5 338.5 L294.5 338.1 L301.5 338.1 L308.1 337.6 L315.1 337.2 L322.0 336.7 L328.6 336.2 L335.1 335.8 L341.2 335.3 L347.7 334.8 L353.8 334.4 L359.8 333.9 L365.9 333.4 L372.4 333.0 L379.4 332.5 L386.9 332.0 L394.4 331.6 L401.4 330.6 L407.9 330.2 L414.4 329.2 L420.5 328.8 L427.0 328.3 L433.5 327.8 L440.5 327.8 L446.6 327.4 L453.1 327.4 L459.2 327.4 L465.7 327.4 L472.7 327.4 L479.3 326.9 L485.8 326.4 L492.3 326.0 L499.3 325.5 L505.8 325.5 L513.3 325.0 L520.8 325.0 L527.3 325.0 L535.7 324.6 L542.2 324.1 L549.2 323.6 L556.2 323.2 L563.2 322.7 L570.2 322.2 L576.8 322.2 L582.4 321.8 L589.4 321.3 L595.4 320.8 L602.4 319.9 L609.9 319.0 L616.9 318.0 L623.4 317.1 L629.0 316.2 L635.1 315.7 L640.7 314.8 L646.7 314.3 L653.3 313.8 L659.3 313.4 L664.9 312.9 L670.5 312.4 L676.1 312.4 L680.8 312.4 L685.0 312.4 L689.6 312.4 L693.8 312.4 L698.0 312.4 L701.3 312.4 L704.1 312.4 L706.9 312.4 L709.7 312.4 L712.5 312.9 L715.3 313.4 L717.6 313.8 L720.0 313.8 L721.8 314.3 L723.7 314.8 L725.6 314.8 L728.4 315.7 L731.2 316.6 L734.0 317.6 L736.3 318.5 L738.6 319.4 L740.5 319.4 L742.4 319.4 L744.7 319.4 L747.0 319.4 L749.4 319.0 L751.2 318.5 L753.1 318.5 L755.0 318.5 L756.8 319.4 L758.2 320.8 L759.6 319.9 L759.6 318.0 L759.6 316.2 L759.6 314.3 L760.6 311.0 L761.0 308.7 L761.5 305.9 L761.5 302.6 L762.0 299.8 L762.0 297.5 L762.0 294.2 L762.0 291.4 L762.0 288.6 L762.0 285.4 L762.0 282.1 L762.0 277.9 L762.0 274.2 L762.0 270.9 L762.0 267.2 L762.0 263.0 L761.5 259.7 L761.5 256.0 L761.0 251.8 L761.0 249.0 L760.6 245.3 L760.1 242.0 L759.6 238.3 L758.7 234.1 L758.2 230.3 L757.8 227.1 L757.3 223.8 L756.4 220.5 L755.4 216.3 L754.5 212.6 L753.6 208.9 L752.6 205.1 L751.7 201.4 L750.3 198.1 L748.9 194.4 L747.5 190.2 L746.6 186.0 L745.6 181.8 L744.7 178.1 L743.8 174.3 L742.8 170.1 L741.9 165.9 L741.0 161.3 L740.0 157.1 L739.1 153.8 L738.2 150.6 L737.2 146.8 L736.8 143.1 L736.3 139.8 L735.8 136.6 L735.4 133.8 L734.9 131.4 L734.4 129.6 L734.0 127.7 L733.5 125.8 L733.0 124.0 L732.1 121.2 L731.2 119.8 L730.2 118.4 L728.8 115.6 L727.9 114.2 L727.0 112.8 L726.0 111.4 L724.6 110.4 L723.2 109.5 L721.8 108.6 L720.0 107.6 L718.1 106.7 L716.2 106.2 L714.4 105.8 L712.0 105.3 L709.2 104.8 L706.4 104.4 L703.2 103.9 L699.9 103.4 L696.2 103.0 L692.9 102.5 L689.6 102.0 L685.9 101.6 L681.3 101.1 L676.6 100.6 L671.9 100.6 L666.8 100.6 L661.7 100.6 L656.1 100.2 L650.0 100.2 L643.9 100.2 L638.3 100.2 L632.7 100.2 L627.1 100.2 L621.5 100.2 L615.9 100.2 L610.8 99.7 L605.7 99.7 L600.5 99.2 L595.4 99.2 L590.8 99.2 L585.6 99.2 L580.0 99.2 L574.4 99.2 L569.3 99.2 L563.7 99.2 L558.6 99.2 L553.0 99.2 L547.8 99.2 L543.2 99.2 L537.1 98.8 L531.5 98.3 L525.4 97.8 L520.3 97.4 L516.1 96.9 L511.4 96.0 L506.8 95.0 L502.1 94.1 L497.9 93.2 L493.7 92.2 L489.1 91.3 L484.4 90.4 L480.2 89.4 L476.5 88.5 L472.3 87.6 L468.5 86.2 L464.3 84.8 L460.1 83.4 L456.4 82.4 L452.7 81.0 L448.9 80.1 L445.7 79.2 L441.9 77.8 L437.7 76.4 L434.0 75.4 L430.3 74.5 L427.0 73.6 L423.3 72.2 L419.5 71.2 L415.3 70.3 L411.2 69.4 L407.0 68.4 L403.2 67.5 L399.0 66.6 L394.4 65.6 L390.2 64.2 L385.5 63.3 L381.3 62.4 L377.6 61.5 L374.3 60.5 L369.2 59.6 L364.5 58.7 L360.3 58.2 L355.2 57.7 L350.5 57.3 L344.4 56.3 L339.3 55.4 L333.7 54.9 L329.0 54.0 L324.4 53.1 L318.8 52.1 L313.7 51.2 L309.0 50.3 L304.8 49.3 L299.7 47.9 L294.5 46.5 L288.9 45.1 L284.3 43.7 L280.1 42.3 L276.3 40.9 L272.1 39.5 L267.9 38.1 L264.7 36.7 L261.4 35.3 L258.6 34.4 L255.8 33.5 L253.0 32.5 L249.7 31.1 L246.9 29.7 L244.1 28.8 L241.3 27.4 L239.0 26.5 L236.7 25.1 L234.8 24.1 L232.9 23.2 L231.1 22.3 L229.7 21.3 L228.3 20.4 L226.9 19.5 L224.1 18.5 L221.3 17.6 L219.0 16.7 L216.6 16.2 L214.3 15.7 L212.4 15.7 L210.6 15.7 L208.7 15.7 L205.9 15.7 L202.6 15.7 L199.4 15.7 L197.0 15.7 L194.7 15.7 L192.4 16.2 L190.0 16.2 L187.7 16.7 L185.4 17.1 L182.6 17.6 L180.2 18.1 L177.4 18.5 L174.6 19.0 L172.3 19.5 L169.5 19.9 L167.2 20.4 L165.3 20.9 L163.4 21.3 L161.1 21.8 L158.8 22.3 L156.4 22.7 L153.6 23.7 L150.8 24.6 L147.1 26.5 L141.0 30.7 L132.2 38.1 L123.3 46.1 L117.7 51.2 L114.5 54.5 L112.1 57.3 L110.3 59.6 L108.4 61.9 L106.5 63.8 L104.7 65.6 L102.8 67.0 L101.4 68.4 L100.0 69.8 L98.6 71.2 L97.2 72.2 L95.8 73.6 L93.9 75.4 L92.5 77.3 L91.6 79.2 L90.7 81.0 L89.7 82.9 L88.8 84.8 L87.9 87.1 L86.9 89.9 L86.5 92.7 L86.0 95.0 L85.1 97.8 L84.6 100.6 L83.7 103.4 L82.7 106.2 L81.8 109.0 L80.9 111.8 L79.9 113.7 L79.0 115.6 L78.1 117.4 L77.1 118.8 L77.1 120.7" fill="none" stroke="#f59e0b" stroke-width="3" stroke-linecap="round" stroke-linejoin="round" opacity="0.9"/></svg>