<svg xmlns="http://www.w3.org/2000/svg" viewBox="0 0 597 197" width="597" height="197"><rect width="100%" height="100%" fill="#0b1220"/><path d="M44.1 38.9 L42.6 41.4 L40.6 44.3 L38.2 48.8 L35.7 53.7 L33.3 58.1 L30.8 61.5 L28.8 65.5 L26.4 69.4 L24.4 72.8 L23.0 76.3 L22.0 79.7 L21.0 83.6 L20.0 86.6 L19.0 89.5 L18.0 93.0 L17.5 95.9 L17.1 98.9 L16.6 101.3 L16.1 103.3 L16.1 105.3 L16.1 107.2 L16.1 110.2 L16.1 113.1 L16.1 115.1 L16.1 117.1 L16.1 119.0 L16.1 121.5 L16.6 123.4 L17.5 125.4 L19.5 127.4 L22.0 129.3 L23.9 130.3 L25.9 131.3 L28.8 132.8 L31.8 133.8 L35.7 134.7 L39.7 135.7 L44.6 136.7 L49.0 137.7 L53.4 137.7 L58.3 137.2 L63.7 136.2 L69.6 133.8 L75.5 131.3 L80.4 128.4 L84.9 125.9 L89.3 123.4 L93.7 121.5 L97.6 119.5 L101.6 117.1 L105.0 115.1 L108.0 113.6 L110.4 112.1 L112.9 110.7 L115.3 109.7 L117.3 109.2 L119.3 109.2 L122.2 110.7 L123.7 112.1 L125.2 114.6 L126.1 118.5 L127.1 123.9 L128.1 129.3 L128.6 133.8 L129.1 137.2 L129.6 140.1 L130.1 142.6 L130.6 144.6 L131.5 146.5 L132.5 148.5 L134.0 150.0 L135.5 151.4 L136.9 152.4 L138.9 153.4 L141.4 153.9 L144.3 153.9 L148.2 153.4 L152.2 151.9 L156.6 150.0 L161.0 147.5 L165.9 144.1 L170.8 140.1 L175.3 136.2 L179.7 132.8 L183.1 130.3 L186.1 127.9 L189.5 126.4 L193.0 124.9 L196.9 124.4 L200.3 124.4 L203.8 124.9 L207.2 125.9 L210.6 127.9 L213.6 130.8 L217.0 134.7 L220.5 138.7 L223.9 142.6 L227.8 146.0 L231.3 149.0 L234.7 151.0 L239.1 152.9 L244.1 153.9 L250.4 153.9 L256.8 153.4 L263.7 151.9 L270.1 150.0 L276.5 148.0 L282.9 146.5 L288.3 145.6 L293.2 144.6 L298.6 144.1 L303.5 144.1 L307.9 144.6 L312.4 146.0 L316.8 149.0 L321.7 153.9 L327.1 160.3 L331.5 166.2 L334.5 170.6 L338.4 174.0 L341.3 177.0 L345.3 179.0 L349.7 180.4 L354.1 180.4 L358.5 179.9 L364.4 178.5 L371.8 175.5 L379.7 172.1 L388.0 167.2 L395.9 161.8 L402.8 156.9 L409.1 153.4 L413.6 151.4 L417.5 150.0 L421.4 149.5 L425.9 149.5 L429.8 150.0 L434.2 151.4 L438.1 153.9 L442.1 156.9 L446.0 159.8 L449.9 162.7 L453.9 165.2 L457.3 167.2 L460.2 168.6 L463.2 170.1 L466.6 171.1 L470.6 172.1 L475.0 172.6 L479.4 172.6 L483.8 172.6 L488.7 172.1 L494.6 171.1 L500.5 169.6 L506.4 167.7 L511.8 165.7 L516.7 163.7 L522.2 161.8 L527.1 160.3 L532.0 158.8 L535.4 157.8 L538.4 156.9 L541.3 155.9 L544.3 155.4 L547.2 154.9 L549.7 154.4 L552.1 153.9 L554.6 153.4 L556.5 152.9 L559.5 151.4 L561.0 150.5 L562.4 149.0 L563.9 147.0 L565.4 144.1 L566.9 140.6 L568.3 136.2 L569.8 131.3 L571.3 125.9 L572.8 119.0 L574.2 112.1 L576.2 105.3 L577.7 98.4 L578.7 92.5 L579.6 87.1 L580.6 82.2 L581.1 77.7 L581.1 73.3 L581.1 68.4 L580.6 64.0 L580.1 60.1 L579.2 55.6 L578.2 53.2 L577.2 49.7 L576.2 47.3 L574.7 44.8 L573.3 42.4 L571.3 39.9 L568.8 37.5 L566.4 35.5 L563.4 34.0 L560.0 32.1 L556.1 30.6 L552.1 29.6 L548.2 28.1 L543.8 27.6 L538.9 26.2 L533.5 25.2 L527.6 23.7 L522.6 22.7 L517.2 21.2 L511.3 20.8 L505.0 19.8 L498.6 18.8 L491.7 18.3 L484.8 17.3 L477.9 16.8 L470.6 16.3 L463.2 15.8 L455.8 15.8 L447.0 15.8 L437.6 15.8 L429.3 16.3 L420.4 16.8 L410.6 17.3 L401.3 17.8 L391.9 18.8 L382.1 19.8 L373.3 20.3 L363.5 20.8 L354.1 21.2 L345.3 21.2 L335.9 22.2 L327.1 22.7 L319.7 23.2 L310.4 23.2 L302.5 23.2 L294.7 23.7 L284.8 23.7 L276.5 23.7 L267.6 24.7 L258.8 24.7 L251.4 24.7 L244.1 24.7 L236.2 23.7 L229.3 23.7 L222.4 23.2 L216.0 22.7 L209.2 22.2 L202.8 21.2 L195.4 21.2 L188.0 20.8 L181.2 20.3 L175.3 19.8 L169.4 19.8 L163.5 20.3 L158.1 20.3 L151.7 20.3 L146.3 20.8 L141.9 20.8 L136.5 21.2 L131.5 21.2 L126.6 22.2 L122.2 22.7 L118.3 23.2 L113.9 23.7 L109.9 23.7 L106.0 23.7 L102.1 24.7 L98.6 24.7 L95.7 24.7 L92.2 24.7 L88.8 24.7 L85.4 24.7 L82.4 24.7 L79.5 24.7 L77.0 24.7 L74.5 24.7 L72.6 24.7 L70.6 24.7 L68.2 24.7 L66.2 25.2 L63.7 25.7 L61.8 26.2 L59.3 26.2 L57.3 27.1 L55.4 27.6 L53.4 28.1 L51.5 28.1 L49.5 28.6 L48.0 29.6 L45.1 30.6 L42.6 31.6 L40.6 33.0 L38.7 34.5 L36.7 36.5" fill="none" stroke="#f59e0b" stroke-width="3" stroke-linecap="round" stroke-linejoin="round" opacity="0.9"/></svg>